<?xml version="1.0" standalone="no"?><!DOCTYPE svg PUBLIC "-//W3C//DTD SVG 1.1//EN" "http://www.w3.org/Graphics/SVG/1.1/DTD/svg11.dtd"><svg t="1590561774432" class="icon" viewBox="0 0 1024 1024" version="1.1" xmlns="http://www.w3.org/2000/svg" p-id="1765" xmlns:xlink="http://www.w3.org/1999/xlink" width="32" height="32"><defs><style type="text/css"></style></defs><path d="M479.04 1015.616c-49.344-3.648-86.848-11.52-137.92-28.992-23.296-8-50.048-20.16-73.28-33.344-5.952-3.392-12.736-7.232-15.04-8.448-12.864-7.104-38.4-24.96-58.112-40.768-22.08-17.664-50.112-45.184-68.672-67.264-16.832-20.096-38.656-50.688-46.848-65.6-1.216-2.304-4.992-9.024-8.384-15.04-8.448-14.912-13.888-25.728-21.056-41.92-6.592-14.912-7.424-17.216-15.104-39.68-13.568-39.488-21.312-76.032-25.472-119.36-1.792-19.008-1.6-70.208 0.32-89.536 4.48-44.736 11.904-77.696 27.968-124.48 9.792-28.544 18.24-46.528 41.28-87.424 11.456-20.352 34.88-52.544 55.04-75.52 8.704-9.92 34.624-35.84 44.608-44.608 15.168-13.312 33.28-27.328 51.712-39.936 12.288-8.384 16.384-10.944 31.04-19.136 6.144-3.456 13.376-7.488 16-9.024 14.464-8.32 43.968-21.312 64-28.16 52.352-17.92 91.072-25.92 140.992-29.12 15.232-0.96 59.904-0.384 73.728 0.96 50.304 4.992 87.552 13.696 139.2 32.512 18.176 6.592 54.464 24.384 71.04 34.752 1.28 0.832 4.032 2.368 6.208 3.456 4.992 2.496 27.264 17.408 38.336 25.664 23.36 17.408 37.952 30.016 57.856 49.92 20.416 20.416 32.704 34.624 49.728 57.664 8.192 11.008 23.296 33.408 25.536 37.824 0.96 1.856 3.776 6.976 6.336 11.392 16.448 28.608 27.264 51.904 36.48 78.784 16.448 47.68 23.68 80.512 28.288 127.616 0.896 9.28 1.152 17.664 1.088 43.52 0 28.288-0.128 33.664-1.408 46.016-2.816 28.16-6.784 50.816-13.248 76.224-10.432 41.024-26.816 83.904-43.2 112.96-1.664 3.008-5.312 9.472-8.128 14.4-2.752 4.928-5.44 9.856-5.952 10.88-1.664 3.392-18.688 28.544-25.536 37.76-9.536 12.736-20.096 25.984-28.096 35.008-9.216 10.496-32.96 34.304-43.776 43.84-22.016 19.584-56.192 44.544-76.352 55.872-4.544 2.56-13.824 7.744-20.608 11.52-33.024 18.368-72.192 33.536-115.072 44.48-25.152 6.4-48.512 10.496-75.584 13.184-10.944 1.088-18.752 1.344-42.816 1.536-16.192 0.128-32.896-0.064-37.12-0.384z m57.92-47.296c35.072-2.112 70.336-8.192 101.44-17.536 5.312-1.536 13.184-3.904 17.6-5.184 20.096-5.824 53.44-20.8 81.216-36.416 2.688-1.472 5.376-2.944 5.952-3.136 3.072-1.088 29.056-18.56 39.872-26.752 15.872-12.032 18.624-14.208 26.56-20.928 10.752-9.024 42.24-40.768 50.368-50.688 15.552-18.944 27.008-34.432 36.544-49.344 2.816-4.352 6.144-9.536 7.424-11.456s2.304-3.712 2.304-3.968c0-0.32 2.048-4.096 4.48-8.512 12.672-22.592 27.776-55.744 33.152-72.64 13.44-42.368 19.968-73.472 23.616-112 1.344-14.912 1.6-57.536 0.32-71.68-3.136-35.456-8.448-63.872-17.728-95.04-1.984-6.656-4.352-14.528-5.184-17.472-1.6-5.504-5.952-16.832-12.096-31.488-4.032-9.664-14.336-30.464-21.568-43.584-2.624-4.736-4.928-9.088-5.184-9.664-0.576-1.664-12.032-19.2-19.456-29.824-5.888-8.448-13.952-19.072-23.424-30.848-15.424-19.2-47.232-50.368-66.688-65.216-15.232-11.648-22.528-17.024-29.76-21.888-11.328-7.68-22.208-14.656-23.552-15.104-0.576-0.192-3.264-1.664-5.952-3.136-28.096-15.744-60.928-30.464-81.856-36.608-4.736-1.408-13.12-3.84-18.56-5.504-54.208-15.936-116.608-21.376-173.12-15.04-29.632 3.264-53.184 8.128-83.2 16.96-18.752 5.504-20.608 6.144-33.28 11.2-21.056 8.32-36.288 15.616-57.792 27.584-4.288 2.368-8.128 4.352-8.384 4.352-0.768 0-25.344 16.128-33.664 22.08-20.16 14.464-35.904 27.712-54.592 46.08-16.512 16.256-28.224 29.056-36.224 39.616-2.368 3.2-5.632 7.296-7.104 9.024-4.032 4.8-13.824 18.56-20.672 29.12-3.328 5.12-7.168 10.944-8.512 13.056-1.408 2.048-2.496 3.968-2.496 4.288 0 0.384-1.344 3.008-3.008 5.888-4.992 8.768-16.128 30.4-19.52 37.888-4.16 9.216-13.44 32.128-15.104 37.44-16.896 53.376-23.872 92.736-24.896 140.8-1.024 48.192 4.928 91.328 19.392 140.48 5.568 18.88 6.144 20.672 11.328 33.6 8.64 21.696 15.488 35.968 27.456 57.472 2.368 4.288 4.352 8.128 4.352 8.384 0 1.856 25.024 38.4 32.896 48 2.176 2.688 5.632 7.04 7.552 9.664 6.08 8.064 19.456 22.656 34.496 37.44 18.176 17.92 25.472 24.128 49.536 42.304 7.36 5.568 35.2 24.192 37.888 25.344 0.96 0.448 4.992 2.56 8.832 4.736 20.672 11.52 37.376 19.456 58.24 27.712 12.672 5.056 14.528 5.696 33.28 11.2 35.84 10.624 70.592 16.832 104.96 18.88 12.48 0.768 39.552 0.768 51.52 0.064z" p-id="1766" fill="#663300"></path><path d="M666.56 833.92c-4.544-2.816-10.048-5.888-12.16-6.912-2.112-1.088-8.192-4.416-13.44-7.552-5.312-3.072-17.216-10.048-26.56-15.488-9.344-5.376-18.944-11.072-21.44-12.544-2.432-1.536-7.232-4.16-10.56-5.952s-11.84-6.592-18.88-10.752c-16.96-9.984-40.64-23.68-59.2-34.24-8.256-4.736-19.2-11.072-24.32-14.08-15.616-9.344-29.376-17.28-30.912-17.856-0.768-0.32-3.84-1.984-6.848-3.776-3.008-1.728-14.208-8.256-24.96-14.528-10.752-6.208-22.08-12.928-25.28-14.848-3.136-1.984-8-4.736-10.752-6.08-2.816-1.408-9.728-5.248-15.36-8.64-18.112-10.688-49.856-29.12-56.128-32.576-3.328-1.792-12.096-6.848-19.52-11.136-18.816-11.008-43.52-25.28-58.048-33.6-6.784-3.84-17.664-10.176-24.192-14.016-26.56-15.552-30.464-17.792-32.32-18.56-1.024-0.512-5.248-2.816-9.28-5.184-4.032-2.432-15.872-9.344-26.24-15.424-25.728-14.976-29.76-17.408-29.76-18.112s8.704-6.08 26.88-16.512c7.04-4.096 17.28-10.048 22.72-13.312 5.504-3.264 12.672-7.36 16-9.152 3.328-1.728 9.28-5.056 13.12-7.296 17.344-10.24 32.896-19.328 43.52-25.408 16.256-9.28 41.856-24.064 57.6-33.344 7.424-4.288 16.448-9.472 20.16-11.52 6.336-3.456 34.496-19.776 54.08-31.36 4.928-2.944 11.968-6.912 15.68-8.832s9.152-5.056 12.16-6.912c3.008-1.792 14.208-8.448 24.96-14.656 10.752-6.272 22.144-12.928 25.408-14.784 3.264-1.92 6.08-3.456 6.272-3.456 0.384 0 10.368-5.76 40.704-23.552 9.024-5.248 20.416-11.84 25.28-14.528 9.344-5.248 27.008-15.488 48.576-28.16 7.04-4.16 15.808-9.152 19.52-11.072 3.712-1.984 7.424-4.032 8.32-4.672 0.896-0.576 10.432-6.208 21.12-12.416 10.752-6.272 23.68-13.824 28.8-16.832 5.12-2.944 10.56-6.016 12.16-6.784 3.264-1.6 10.368-5.696 17.024-9.728 8.064-4.992 9.088-7.36-12.8 29.376-6.016 10.112-14.336 23.936-18.432 30.784-4.096 6.784-8.128 13.632-8.96 15.168-1.472 2.816-27.392 46.08-34.24 57.216-1.984 3.2-4.544 7.616-5.696 9.92s-4.8 8.64-8.128 14.08c-6.656 10.944-25.6 42.56-41.664 69.76-5.76 9.664-14.464 24.256-19.328 32.448-4.928 8.128-15.04 25.152-22.528 37.824-7.488 12.608-14.912 24.96-16.448 27.392-1.6 2.432-2.88 4.736-2.88 5.056 0 0.384 5.056 8.896 11.328 18.88 6.208 10.048 13.504 22.016 16.256 26.56 5.632 9.408 12.224 20.16 30.848 50.432 7.104 11.52 17.088 27.776 22.144 36.16 5.12 8.32 11.072 17.92 13.312 21.312 2.176 3.392 7.168 11.456 11.008 17.92 8.384 14.08 9.984 16.64 26.816 43.776 7.168 11.648 14.528 23.552 16.32 26.56 6.336 10.688 16.064 26.624 18.432 30.144 2.752 4.16 20.736 33.408 23.104 37.696 0.896 1.6 2.816 4.736 4.224 7.04 2.56 3.968 3.264 5.824 2.24 5.696-0.32 0-4.224-2.304-8.832-5.056z" p-id="1767" fill="#663300"></path></svg>